<svg id="mermaidInkSvg" width="100%" xmlns="http://www.w3.org/2000/svg" class="classDiagram" style="max-width: 2297.6328125px;" viewBox="0 0 2297.6328125 456" role="graphics-document document" aria-roledescription="class" xmlns:xlink="http://www.w3.org/1999/xlink"><style xmlns="http://www.w3.org/1999/xhtml">@import url("https://cdnjs.cloudflare.com/ajax/libs/font-awesome/6.7.2/css/all.min.css");</style><style>#mermaidInkSvg{font-family:"trebuchet ms",verdana,arial,sans-serif;font-size:16px;fill:#333;}@keyframes edge-animation-frame{from{stroke-dashoffset:0;}}@keyframes dash{to{stroke-dashoffset:0;}}#mermaidInkSvg .edge-animation-slow{stroke-dasharray:9,5!important;stroke-dashoffset:900;animation:dash 50s linear infinite;stroke-linecap:round;}#mermaidInkSvg .edge-animation-fast{stroke-dasharray:9,5!important;stroke-dashoffset:900;animation:dash 20s linear infinite;stroke-linecap:round;}#mermaidInkSvg .error-icon{fill:#552222;}#mermaidInkSvg .error-text{fill:#552222;stroke:#552222;}#mermaidInkSvg .edge-thickness-normal{stroke-width:1px;}#mermaidInkSvg .edge-thickness-thick{stroke-width:3.5px;}#mermaidInkSvg .edge-pattern-solid{stroke-dasharray:0;}#mermaidInkSvg .edge-thickness-invisible{stroke-width:0;fill:none;}#mermaidInkSvg .edge-pattern-dashed{stroke-dasharray:3;}#mermaidInkSvg .edge-pattern-dotted{stroke-dasharray:2;}#mermaidInkSvg .marker{fill:#333333;stroke:#333333;}#mermaidInkSvg .marker.cross{stroke:#333333;}#mermaidInkSvg svg{font-family:"trebuchet ms",verdana,arial,sans-serif;font-size:16px;}#mermaidInkSvg p{margin:0;}#mermaidInkSvg g.classGroup text{fill:#9370DB;stroke:none;font-family:"trebuchet ms",verdana,arial,sans-serif;font-size:10px;}#mermaidInkSvg g.classGroup text .title{font-weight:bolder;}#mermaidInkSvg .nodeLabel,#mermaidInkSvg .edgeLabel{color:#131300;}#mermaidInkSvg .edgeLabel .label rect{fill:#ECECFF;}#mermaidInkSvg .label text{fill:#131300;}#mermaidInkSvg .labelBkg{background:#ECECFF;}#mermaidInkSvg .edgeLabel .label span{background:#ECECFF;}#mermaidInkSvg .classTitle{font-weight:bolder;}#mermaidInkSvg .node rect,#mermaidInkSvg .node circle,#mermaidInkSvg .node ellipse,#mermaidInkSvg .node polygon,#mermaidInkSvg .node path{fill:#ECECFF;stroke:#9370DB;stroke-width:1px;}#mermaidInkSvg .divider{stroke:#9370DB;stroke-width:1;}#mermaidInkSvg g.clickable{cursor:pointer;}#mermaidInkSvg g.classGroup rect{fill:#ECECFF;stroke:#9370DB;}#mermaidInkSvg g.classGroup line{stroke:#9370DB;stroke-width:1;}#mermaidInkSvg .classLabel .box{stroke:none;stroke-width:0;fill:#ECECFF;opacity:0.5;}#mermaidInkSvg .classLabel .label{fill:#9370DB;font-size:10px;}#mermaidInkSvg .relation{stroke:#333333;stroke-width:1;fill:none;}#mermaidInkSvg .dashed-line{stroke-dasharray:3;}#mermaidInkSvg .dotted-line{stroke-dasharray:1 2;}#mermaidInkSvg #compositionStart,#mermaidInkSvg .composition{fill:#333333!important;stroke:#333333!important;stroke-width:1;}#mermaidInkSvg #compositionEnd,#mermaidInkSvg .composition{fill:#333333!important;stroke:#333333!important;stroke-width:1;}#mermaidInkSvg #dependencyStart,#mermaidInkSvg .dependency{fill:#333333!important;stroke:#333333!important;stroke-width:1;}#mermaidInkSvg #dependencyStart,#mermaidInkSvg .dependency{fill:#333333!important;stroke:#333333!important;stroke-width:1;}#mermaidInkSvg #extensionStart,#mermaidInkSvg .extension{fill:transparent!important;stroke:#333333!important;stroke-width:1;}#mermaidInkSvg #extensionEnd,#mermaidInkSvg .extension{fill:transparent!important;stroke:#333333!important;stroke-width:1;}#mermaidInkSvg #aggregationStart,#mermaidInkSvg .aggregation{fill:transparent!important;stroke:#333333!important;stroke-width:1;}#mermaidInkSvg #aggregationEnd,#mermaidInkSvg .aggregation{fill:transparent!important;stroke:#333333!important;stroke-width:1;}#mermaidInkSvg #lollipopStart,#mermaidInkSvg .lollipop{fill:#ECECFF!important;stroke:#333333!important;stroke-width:1;}#mermaidInkSvg #lollipopEnd,#mermaidInkSvg .lollipop{fill:#ECECFF!important;stroke:#333333!important;stroke-width:1;}#mermaidInkSvg .edgeTerminals{font-size:11px;line-height:initial;}#mermaidInkSvg .classTitleText{text-anchor:middle;font-size:18px;fill:#333;}#mermaidInkSvg .label-icon{display:inline-block;height:1em;overflow:visible;vertical-align:-0.125em;}#mermaidInkSvg .node .label-icon path{fill:currentColor;stroke:revert;stroke-width:revert;}#mermaidInkSvg :root{--mermaid-font-family:"trebuchet ms",verdana,arial,sans-serif;}</style><g><defs><marker id="mermaidInkSvg_class-aggregationStart" class="marker aggregation class" refX="18" refY="7" markerWidth="190" markerHeight="240" orient="auto"><path d="M 18,7 L9,13 L1,7 L9,1 Z"/></marker></defs><defs><marker id="mermaidInkSvg_class-aggregationEnd" class="marker aggregation class" refX="1" refY="7" markerWidth="20" markerHeight="28" orient="auto"><path d="M 18,7 L9,13 L1,7 L9,1 Z"/></marker></defs><defs><marker id="mermaidInkSvg_class-extensionStart" class="marker extension class" refX="18" refY="7" markerWidth="190" markerHeight="240" orient="auto"><path d="M 1,7 L18,13 V 1 Z"/></marker></defs><defs><marker id="mermaidInkSvg_class-extensionEnd" class="marker extension class" refX="1" refY="7" markerWidth="20" markerHeight="28" orient="auto"><path d="M 1,1 V 13 L18,7 Z"/></marker></defs><defs><marker id="mermaidInkSvg_class-compositionStart" class="marker composition class" refX="18" refY="7" markerWidth="190" markerHeight="240" orient="auto"><path d="M 18,7 L9,13 L1,7 L9,1 Z"/></marker></defs><defs><marker id="mermaidInkSvg_class-compositionEnd" class="marker composition class" refX="1" refY="7" markerWidth="20" markerHeight="28" orient="auto"><path d="M 18,7 L9,13 L1,7 L9,1 Z"/></marker></defs><defs><marker id="mermaidInkSvg_class-dependencyStart" class="marker dependency class" refX="6" refY="7" markerWidth="190" markerHeight="240" orient="auto"><path d="M 5,7 L9,13 L1,7 L9,1 Z"/></marker></defs><defs><marker id="mermaidInkSvg_class-dependencyEnd" class="marker dependency class" refX="13" refY="7" markerWidth="20" markerHeight="28" orient="auto"><path d="M 18,7 L9,13 L14,7 L9,1 Z"/></marker></defs><defs><marker id="mermaidInkSvg_class-lollipopStart" class="marker lollipop class" refX="13" refY="7" markerWidth="190" markerHeight="240" orient="auto"><circle stroke="black" fill="transparent" cx="7" cy="7" r="6"/></marker></defs><defs><marker id="mermaidInkSvg_class-lollipopEnd" class="marker lollipop class" refX="1" refY="7" markerWidth="190" markerHeight="240" orient="auto"><circle stroke="black" fill="transparent" cx="7" cy="7" r="6"/></marker></defs><g class="root"><g class="clusters"/><g class="edgePaths"><path d="M1000.403,148.138L871.797,164.949C743.191,181.759,485.978,215.379,357.372,236.356C228.766,257.333,228.766,265.667,228.766,269.833L228.766,274" id="id_BaseAgent_AnalystAgent_1" class="edge-thickness-normal edge-pattern-solid relation" style=";;;" data-edge="true" data-et="edge" data-id="id_BaseAgent_AnalystAgent_1" data-points="W3sieCI6MTAxNy41MDc4MTI1LCJ5IjoxNDUuOTAyNjk5OTg0MjZ9LHsieCI6MjI4Ljc2NTYyNSwieSI6MjQ5fSx7IngiOjIyOC43NjU2MjUsInkiOjI3NH1d" marker-start="url(#mermaidInkSvg_class-extensionStart)"/><path d="M1000.827,180.661L957.591,192.051C914.356,203.441,827.885,226.22,784.65,241.777C741.414,257.333,741.414,265.667,741.414,269.833L741.414,274" id="id_BaseAgent_ArchitectAgent_2" class="edge-thickness-normal edge-pattern-solid relation" style=";;;" data-edge="true" data-et="edge" data-id="id_BaseAgent_ArchitectAgent_2" data-points="W3sieCI6MTAxNy41MDc4MTI1LCJ5IjoxNzYuMjY2NTA5MzQyNzIxMTh9LHsieCI6NzQxLjQxNDA2MjUsInkiOjI0OX0seyJ4Ijo3NDEuNDE0MDYyNSwieSI6Mjc0fV0=" marker-start="url(#mermaidInkSvg_class-extensionStart)"/><path d="M1246.277,241.25L1246.277,242.542C1246.277,243.833,1246.277,246.417,1246.277,251.875C1246.277,257.333,1246.277,265.667,1246.277,269.833L1246.277,274" id="id_BaseAgent_ScrumMasterAgent_3" class="edge-thickness-normal edge-pattern-solid relation" style=";;;" data-edge="true" data-et="edge" data-id="id_BaseAgent_ScrumMasterAgent_3" data-points="W3sieCI6MTI0Ni4yNzczNDM3NSwieSI6MjI0fSx7IngiOjEyNDYuMjc3MzQzNzUsInkiOjI0OX0seyJ4IjoxMjQ2LjI3NzM0Mzc1LCJ5IjoyNzR9XQ==" marker-start="url(#mermaidInkSvg_class-extensionStart)"/><path d="M1491.622,186.728L1527.624,197.106C1563.627,207.485,1635.632,228.243,1671.634,242.788C1707.637,257.333,1707.637,265.667,1707.637,269.833L1707.637,274" id="id_BaseAgent_DeveloperAgent_4" class="edge-thickness-normal edge-pattern-solid relation" style=";;;" data-edge="true" data-et="edge" data-id="id_BaseAgent_DeveloperAgent_4" data-points="W3sieCI6MTQ3NS4wNDY4NzUsInkiOjE4MS45NDkzNDI5NzQyMjY5N30seyJ4IjoxNzA3LjYzNjcxODc1LCJ5IjoyNDl9LHsieCI6MTcwNy42MzY3MTg3NSwieSI6Mjc0fV0=" marker-start="url(#mermaidInkSvg_class-extensionStart)"/><path d="M1492.102,153.299L1597.222,169.249C1702.343,185.2,1912.583,217.1,2017.704,237.217C2122.824,257.333,2122.824,265.667,2122.824,269.833L2122.824,274" id="id_BaseAgent_QAAgent_5" class="edge-thickness-normal edge-pattern-solid relation" style=";;;" data-edge="true" data-et="edge" data-id="id_BaseAgent_QAAgent_5" data-points="W3sieCI6MTQ3NS4wNDY4NzUsInkiOjE1MC43MTE2MDM1OTM2NDY5NH0seyJ4IjoyMTIyLjgyNDIxODc1LCJ5IjoyNDl9LHsieCI6MjEyMi44MjQyMTg3NSwieSI6Mjc0fV0=" marker-start="url(#mermaidInkSvg_class-extensionStart)"/></g><g class="edgeLabels"><g class="edgeLabel"><g class="label" data-id="id_BaseAgent_AnalystAgent_1" transform="translate(0, 0)"><foreignObject width="0" height="0"><div xmlns="http://www.w3.org/1999/xhtml" class="labelBkg" style="display: table-cell; white-space: nowrap; line-height: 1.5; max-width: 200px; text-align: center;"><span class="edgeLabel"></span></div></foreignObject></g></g><g class="edgeLabel"><g class="label" data-id="id_BaseAgent_ArchitectAgent_2" transform="translate(0, 0)"><foreignObject width="0" height="0"><div xmlns="http://www.w3.org/1999/xhtml" class="labelBkg" style="display: table-cell; white-space: nowrap; line-height: 1.5; max-width: 200px; text-align: center;"><span class="edgeLabel"></span></div></foreignObject></g></g><g class="edgeLabel"><g class="label" data-id="id_BaseAgent_ScrumMasterAgent_3" transform="translate(0, 0)"><foreignObject width="0" height="0"><div xmlns="http://www.w3.org/1999/xhtml" class="labelBkg" style="display: table-cell; white-space: nowrap; line-height: 1.5; max-width: 200px; text-align: center;"><span class="edgeLabel"></span></div></foreignObject></g></g><g class="edgeLabel"><g class="label" data-id="id_BaseAgent_DeveloperAgent_4" transform="translate(0, 0)"><foreignObject width="0" height="0"><div xmlns="http://www.w3.org/1999/xhtml" class="labelBkg" style="display: table-cell; white-space: nowrap; line-height: 1.5; max-width: 200px; text-align: center;"><span class="edgeLabel"></span></div></foreignObject></g></g><g class="edgeLabel"><g class="label" data-id="id_BaseAgent_QAAgent_5" transform="translate(0, 0)"><foreignObject width="0" height="0"><div xmlns="http://www.w3.org/1999/xhtml" class="labelBkg" style="display: table-cell; white-space: nowrap; line-height: 1.5; max-width: 200px; text-align: center;"><span class="edgeLabel"></span></div></foreignObject></g></g></g><g class="nodes"><g class="node default" id="classId-BaseAgent-211" transform="translate(1246.27734375, 116)"><g class="basic label-container"><path d="M-228.76953125 -108 L228.76953125 -108 L228.76953125 108 L-228.76953125 108" stroke="none" stroke-width="0" fill="#ECECFF" style=""/><path d="M-228.76953125 -108 C-125.91471805940382 -108, -23.05990486880765 -108, 228.76953125 -108 M-228.76953125 -108 C-56.22024243331143 -108, 116.32904638337715 -108, 228.76953125 -108 M228.76953125 -108 C228.76953125 -39.72973584114969, 228.76953125 28.54052831770062, 228.76953125 108 M228.76953125 -108 C228.76953125 -28.0532754020346, 228.76953125 51.8934491959308, 228.76953125 108 M228.76953125 108 C124.2481466292012 108, 19.726762008402403 108, -228.76953125 108 M228.76953125 108 C106.58789936302871 108, -15.593732523942577 108, -228.76953125 108 M-228.76953125 108 C-228.76953125 47.93293761164784, -228.76953125 -12.134124776704326, -228.76953125 -108 M-228.76953125 108 C-228.76953125 43.89547780947345, -228.76953125 -20.209044381053104, -228.76953125 -108" stroke="#9370DB" stroke-width="1.3" fill="none" stroke-dasharray="0 0" style=""/></g><g class="annotation-group text" transform="translate(-37.359375, -84)"><g class="label" style="" transform="translate(0,-12)"><foreignObject width="74.71875" height="24"><div xmlns="http://www.w3.org/1999/xhtml" style="display: table-cell; white-space: nowrap; line-height: 1.5; max-width: 116px; text-align: center;"><span class="nodeLabel markdown-node-label" style=""><p>«abstract»</p></span></div></foreignObject></g></g><g class="label-group text" transform="translate(-41.7890625, -60)"><g class="label" style="font-weight: bolder" transform="translate(0,-12)"><foreignObject width="83.578125" height="24"><div xmlns="http://www.w3.org/1999/xhtml" style="display: table-cell; white-space: nowrap; line-height: 1.5; max-width: 121px; text-align: center;"><span class="nodeLabel markdown-node-label" style=""><p>BaseAgent</p></span></div></foreignObject></g></g><g class="members-group text" transform="translate(-216.76953125, -12)"><g class="label" style="" transform="translate(0,-12)"><foreignObject width="151.609375" height="24"><div xmlns="http://www.w3.org/1999/xhtml" style="display: table-cell; white-space: nowrap; line-height: 1.5; max-width: 206px; text-align: center;"><span class="nodeLabel markdown-node-label" style=""><p>+llmClient: LLMClient</p></span></div></foreignObject></g></g><g class="methods-group text" transform="translate(-216.76953125, 36)"><g class="label" style="" transform="translate(0,-12)"><foreignObject width="341.09375" height="24"><div xmlns="http://www.w3.org/1999/xhtml" style="display: table-cell; white-space: nowrap; line-height: 1.5; max-width: 368px; text-align: center;"><span class="nodeLabel markdown-node-label" style=""><p>+execute(context: AgentContext) : : AgentResult</p></span></div></foreignObject></g><g class="label" style="" transform="translate(0,12)"><foreignObject width="391.75" height="24"><div xmlns="http://www.w3.org/1999/xhtml" style="display: table-cell; white-space: nowrap; line-height: 1.5; max-width: 446px; text-align: center;"><span class="nodeLabel markdown-node-label" style=""><p>+generateResponse(prompt: string) : : Promise&lt;string&gt;</p></span></div></foreignObject></g><g class="label" style="" transform="translate(0,36)"><foreignObject width="333.96875" height="24"><div xmlns="http://www.w3.org/1999/xhtml" style="display: table-cell; white-space: nowrap; line-height: 1.5; max-width: 360px; text-align: center;"><span class="nodeLabel markdown-node-label" style=""><p>+validateResult(result: AgentResult) : : boolean</p></span></div></foreignObject></g></g><g class="divider" style=""><path d="M-228.76953125 -36 C-96.65070146107902 -36, 35.46812832784195 -36, 228.76953125 -36 M-228.76953125 -36 C-121.19870920444504 -36, -13.627887158890076 -36, 228.76953125 -36" stroke="#9370DB" stroke-width="1.3" fill="none" stroke-dasharray="0 0" style=""/></g><g class="divider" style=""><path d="M-228.76953125 12 C-124.4412337549717 12, -20.11293625994341 12, 228.76953125 12 M-228.76953125 12 C-128.4440912802864 12, -28.118651310572773 12, 228.76953125 12" stroke="#9370DB" stroke-width="1.3" fill="none" stroke-dasharray="0 0" style=""/></g></g><g class="node default" id="classId-AnalystAgent-212" transform="translate(228.765625, 361)"><g class="basic label-container"><path d="M-220.765625 -87 L220.765625 -87 L220.765625 87 L-220.765625 87" stroke="none" stroke-width="0" fill="#ECECFF" style=""/><path d="M-220.765625 -87 C-64.86947470773737 -87, 91.02667558452526 -87, 220.765625 -87 M-220.765625 -87 C-128.8449702165247 -87, -36.92431543304943 -87, 220.765625 -87 M220.765625 -87 C220.765625 -31.21048285059306, 220.765625 24.57903429881388, 220.765625 87 M220.765625 -87 C220.765625 -47.60742954764626, 220.765625 -8.214859095292525, 220.765625 87 M220.765625 87 C76.55596585913216 87, -67.65369328173568 87, -220.765625 87 M220.765625 87 C118.42108332225055 87, 16.076541644501106 87, -220.765625 87 M-220.765625 87 C-220.765625 37.7832801937571, -220.765625 -11.433439612485799, -220.765625 -87 M-220.765625 87 C-220.765625 39.26859940461353, -220.765625 -8.462801190772936, -220.765625 -87" stroke="#9370DB" stroke-width="1.3" fill="none" stroke-dasharray="0 0" style=""/></g><g class="annotation-group text" transform="translate(0, -63)"/><g class="label-group text" transform="translate(-51.5625, -63)"><g class="label" style="font-weight: bolder" transform="translate(0,-12)"><foreignObject width="103.125" height="24"><div xmlns="http://www.w3.org/1999/xhtml" style="display: table-cell; white-space: nowrap; line-height: 1.5; max-width: 139px; text-align: center;"><span class="nodeLabel markdown-node-label" style=""><p>AnalystAgent</p></span></div></foreignObject></g></g><g class="members-group text" transform="translate(-208.765625, -15)"/><g class="methods-group text" transform="translate(-208.765625, 15)"><g class="label" style="" transform="translate(0,-12)"><foreignObject width="365.96875" height="24"><div xmlns="http://www.w3.org/1999/xhtml" style="display: table-cell; white-space: nowrap; line-height: 1.5; max-width: 390px; text-align: center;"><span class="nodeLabel markdown-node-label" style=""><p>+analyzeRequirements(input: string) : : AgentResult</p></span></div></foreignObject></g><g class="label" style="" transform="translate(0,12)"><foreignObject width="231.65625" height="24"><div xmlns="http://www.w3.org/1999/xhtml" style="display: table-cell; white-space: nowrap; line-height: 1.5; max-width: 268px; text-align: center;"><span class="nodeLabel markdown-node-label" style=""><p>+extractStakeholders() : : string[]</p></span></div></foreignObject></g><g class="label" style="" transform="translate(0,36)"><foreignObject width="221.859375" height="24"><div xmlns="http://www.w3.org/1999/xhtml" style="display: table-cell; white-space: nowrap; line-height: 1.5; max-width: 265px; text-align: center;"><span class="nodeLabel markdown-node-label" style=""><p>+identifyConstraints() : : string[]</p></span></div></foreignObject></g></g><g class="divider" style=""><path d="M-220.765625 -39 C-102.42821063348629 -39, 15.909203733027425 -39, 220.765625 -39 M-220.765625 -39 C-95.55542839165722 -39, 29.654768216685568 -39, 220.765625 -39" stroke="#9370DB" stroke-width="1.3" fill="none" stroke-dasharray="0 0" style=""/></g><g class="divider" style=""><path d="M-220.765625 -15 C-102.7048944222333 -15, 15.35583615553341 -15, 220.765625 -15 M-220.765625 -15 C-106.0094569757773 -15, 8.746711048445405 -15, 220.765625 -15" stroke="#9370DB" stroke-width="1.3" fill="none" stroke-dasharray="0 0" style=""/></g></g><g class="node default" id="classId-ArchitectAgent-213" transform="translate(741.4140625, 361)"><g class="basic label-container"><path d="M-241.8828125 -87 L241.8828125 -87 L241.8828125 87 L-241.8828125 87" stroke="none" stroke-width="0" fill="#ECECFF" style=""/><path d="M-241.8828125 -87 C-106.94296847896675 -87, 27.996875542066505 -87, 241.8828125 -87 M-241.8828125 -87 C-73.64725021877592 -87, 94.58831206244815 -87, 241.8828125 -87 M241.8828125 -87 C241.8828125 -18.91032287830369, 241.8828125 49.17935424339262, 241.8828125 87 M241.8828125 -87 C241.8828125 -30.4041648737524, 241.8828125 26.1916702524952, 241.8828125 87 M241.8828125 87 C86.75566461727277 87, -68.37148326545446 87, -241.8828125 87 M241.8828125 87 C69.45420336638313 87, -102.97440576723375 87, -241.8828125 87 M-241.8828125 87 C-241.8828125 29.72953428276191, -241.8828125 -27.540931434476178, -241.8828125 -87 M-241.8828125 87 C-241.8828125 18.543624789279974, -241.8828125 -49.91275042144005, -241.8828125 -87" stroke="#9370DB" stroke-width="1.3" fill="none" stroke-dasharray="0 0" style=""/></g><g class="annotation-group text" transform="translate(0, -63)"/><g class="label-group text" transform="translate(-57.34375, -63)"><g class="label" style="font-weight: bolder" transform="translate(0,-12)"><foreignObject width="114.6875" height="24"><div xmlns="http://www.w3.org/1999/xhtml" style="display: table-cell; white-space: nowrap; line-height: 1.5; max-width: 149px; text-align: center;"><span class="nodeLabel markdown-node-label" style=""><p>ArchitectAgent</p></span></div></foreignObject></g></g><g class="members-group text" transform="translate(-229.8828125, -15)"/><g class="methods-group text" transform="translate(-229.8828125, 15)"><g class="label" style="" transform="translate(0,-12)"><foreignObject width="402.421875" height="24"><div xmlns="http://www.w3.org/1999/xhtml" style="display: table-cell; white-space: nowrap; line-height: 1.5; max-width: 425px; text-align: center;"><span class="nodeLabel markdown-node-label" style=""><p>+designArchitecture(requirements: string) : : AgentResult</p></span></div></foreignObject></g><g class="label" style="" transform="translate(0,12)"><foreignObject width="253" height="24"><div xmlns="http://www.w3.org/1999/xhtml" style="display: table-cell; white-space: nowrap; line-height: 1.5; max-width: 289px; text-align: center;"><span class="nodeLabel markdown-node-label" style=""><p>+selectTechnologyStack() : : string[]</p></span></div></foreignObject></g><g class="label" style="" transform="translate(0,36)"><foreignObject width="268.15625" height="24"><div xmlns="http://www.w3.org/1999/xhtml" style="display: table-cell; white-space: nowrap; line-height: 1.5; max-width: 301px; text-align: center;"><span class="nodeLabel markdown-node-label" style=""><p>+defineComponents() : : Component[]</p></span></div></foreignObject></g></g><g class="divider" style=""><path d="M-241.8828125 -39 C-59.671799207337074 -39, 122.53921408532585 -39, 241.8828125 -39 M-241.8828125 -39 C-86.49192208626681 -39, 68.89896832746638 -39, 241.8828125 -39" stroke="#9370DB" stroke-width="1.3" fill="none" stroke-dasharray="0 0" style=""/></g><g class="divider" style=""><path d="M-241.8828125 -15 C-78.04699301465763 -15, 85.78882647068474 -15, 241.8828125 -15 M-241.8828125 -15 C-134.10778264727693 -15, -26.33275279455387 -15, 241.8828125 -15" stroke="#9370DB" stroke-width="1.3" fill="none" stroke-dasharray="0 0" style=""/></g></g><g class="node default" id="classId-ScrumMasterAgent-214" transform="translate(1246.27734375, 361)"><g class="basic label-container"><path d="M-212.98046875 -87 L212.98046875 -87 L212.98046875 87 L-212.98046875 87" stroke="none" stroke-width="0" fill="#ECECFF" style=""/><path d="M-212.98046875 -87 C-60.59308556432049 -87, 91.79429762135902 -87, 212.98046875 -87 M-212.98046875 -87 C-103.96356101801511 -87, 5.053346713969773 -87, 212.98046875 -87 M212.98046875 -87 C212.98046875 -35.70763814657627, 212.98046875 15.584723706847456, 212.98046875 87 M212.98046875 -87 C212.98046875 -31.590446327583606, 212.98046875 23.819107344832787, 212.98046875 87 M212.98046875 87 C67.18961897635637 87, -78.60123079728726 87, -212.98046875 87 M212.98046875 87 C50.538942136965915 87, -111.90258447606817 87, -212.98046875 87 M-212.98046875 87 C-212.98046875 49.4233821683611, -212.98046875 11.846764336722202, -212.98046875 -87 M-212.98046875 87 C-212.98046875 29.730688490213183, -212.98046875 -27.538623019573635, -212.98046875 -87" stroke="#9370DB" stroke-width="1.3" fill="none" stroke-dasharray="0 0" style=""/></g><g class="annotation-group text" transform="translate(0, -63)"/><g class="label-group text" transform="translate(-73.3515625, -63)"><g class="label" style="font-weight: bolder" transform="translate(0,-12)"><foreignObject width="146.703125" height="24"><div xmlns="http://www.w3.org/1999/xhtml" style="display: table-cell; white-space: nowrap; line-height: 1.5; max-width: 176px; text-align: center;"><span class="nodeLabel markdown-node-label" style=""><p>ScrumMasterAgent</p></span></div></foreignObject></g></g><g class="members-group text" transform="translate(-200.98046875, -15)"/><g class="methods-group text" transform="translate(-200.98046875, 15)"><g class="label" style="" transform="translate(0,-12)"><foreignObject width="328.609375" height="24"><div xmlns="http://www.w3.org/1999/xhtml" style="display: table-cell; white-space: nowrap; line-height: 1.5; max-width: 358px; text-align: center;"><span class="nodeLabel markdown-node-label" style=""><p>+breakDownTasks(plan: string) : : AgentResult</p></span></div></foreignObject></g><g class="label" style="" transform="translate(0,12)"><foreignObject width="194.890625" height="24"><div xmlns="http://www.w3.org/1999/xhtml" style="display: table-cell; white-space: nowrap; line-height: 1.5; max-width: 236px; text-align: center;"><span class="nodeLabel markdown-node-label" style=""><p>+estimateEffort() : : number</p></span></div></foreignObject></g><g class="label" style="" transform="translate(0,36)"><foreignObject width="185.09375" height="24"><div xmlns="http://www.w3.org/1999/xhtml" style="display: table-cell; white-space: nowrap; line-height: 1.5; max-width: 230px; text-align: center;"><span class="nodeLabel markdown-node-label" style=""><p>+prioritizeTasks() : : Task[]</p></span></div></foreignObject></g></g><g class="divider" style=""><path d="M-212.98046875 -39 C-125.18727253731629 -39, -37.39407632463258 -39, 212.98046875 -39 M-212.98046875 -39 C-85.69314569451848 -39, 41.594177360963045 -39, 212.98046875 -39" stroke="#9370DB" stroke-width="1.3" fill="none" stroke-dasharray="0 0" style=""/></g><g class="divider" style=""><path d="M-212.98046875 -15 C-118.46882358122915 -15, -23.95717841245829 -15, 212.98046875 -15 M-212.98046875 -15 C-80.82811419234821 -15, 51.32424036530358 -15, 212.98046875 -15" stroke="#9370DB" stroke-width="1.3" fill="none" stroke-dasharray="0 0" style=""/></g></g><g class="node default" id="classId-DeveloperAgent-215" transform="translate(1707.63671875, 361)"><g class="basic label-container"><path d="M-198.37890625 -87 L198.37890625 -87 L198.37890625 87 L-198.37890625 87" stroke="none" stroke-width="0" fill="#ECECFF" style=""/><path d="M-198.37890625 -87 C-106.46347991774965 -87, -14.548053585499304 -87, 198.37890625 -87 M-198.37890625 -87 C-80.7960904597997 -87, 36.7867253304006 -87, 198.37890625 -87 M198.37890625 -87 C198.37890625 -38.50003908010805, 198.37890625 9.999921839783894, 198.37890625 87 M198.37890625 -87 C198.37890625 -35.70300067221799, 198.37890625 15.593998655564022, 198.37890625 87 M198.37890625 87 C118.88701763901646 87, 39.395129028032926 87, -198.37890625 87 M198.37890625 87 C64.81066807528919 87, -68.75757009942163 87, -198.37890625 87 M-198.37890625 87 C-198.37890625 31.899362669279554, -198.37890625 -23.20127466144089, -198.37890625 -87 M-198.37890625 87 C-198.37890625 50.23575855103362, -198.37890625 13.471517102067239, -198.37890625 -87" stroke="#9370DB" stroke-width="1.3" fill="none" stroke-dasharray="0 0" style=""/></g><g class="annotation-group text" transform="translate(0, -63)"/><g class="label-group text" transform="translate(-61.3515625, -63)"><g class="label" style="font-weight: bolder" transform="translate(0,-12)"><foreignObject width="122.703125" height="24"><div xmlns="http://www.w3.org/1999/xhtml" style="display: table-cell; white-space: nowrap; line-height: 1.5; max-width: 156px; text-align: center;"><span class="nodeLabel markdown-node-label" style=""><p>DeveloperAgent</p></span></div></foreignObject></g></g><g class="members-group text" transform="translate(-186.37890625, -15)"/><g class="methods-group text" transform="translate(-186.37890625, 15)"><g class="label" style="" transform="translate(0,-12)"><foreignObject width="311.40625" height="24"><div xmlns="http://www.w3.org/1999/xhtml" style="display: table-cell; white-space: nowrap; line-height: 1.5; max-width: 341px; text-align: center;"><span class="nodeLabel markdown-node-label" style=""><p>+implementCode(task: Task) : : AgentResult</p></span></div></foreignObject></g><g class="label" style="" transform="translate(0,12)"><foreignObject width="151.296875" height="24"><div xmlns="http://www.w3.org/1999/xhtml" style="display: table-cell; white-space: nowrap; line-height: 1.5; max-width: 197px; text-align: center;"><span class="nodeLabel markdown-node-label" style=""><p>+writeTests() : : Test[]</p></span></div></foreignObject></g><g class="label" style="" transform="translate(0,36)"><foreignObject width="188.0625" height="24"><div xmlns="http://www.w3.org/1999/xhtml" style="display: table-cell; white-space: nowrap; line-height: 1.5; max-width: 232px; text-align: center;"><span class="nodeLabel markdown-node-label" style=""><p>+reviewCode() : : Review[]</p></span></div></foreignObject></g></g><g class="divider" style=""><path d="M-198.37890625 -39 C-79.86186610779286 -39, 38.65517403441427 -39, 198.37890625 -39 M-198.37890625 -39 C-88.88269896573239 -39, 20.613508318535224 -39, 198.37890625 -39" stroke="#9370DB" stroke-width="1.3" fill="none" stroke-dasharray="0 0" style=""/></g><g class="divider" style=""><path d="M-198.37890625 -15 C-110.91158302119076 -15, -23.44425979238153 -15, 198.37890625 -15 M-198.37890625 -15 C-41.532562550943425 -15, 115.31378114811315 -15, 198.37890625 -15" stroke="#9370DB" stroke-width="1.3" fill="none" stroke-dasharray="0 0" style=""/></g></g><g class="node default" id="classId-QAAgent-216" transform="translate(2122.82421875, 361)"><g class="basic label-container"><path d="M-166.80859375 -87 L166.80859375 -87 L166.80859375 87 L-166.80859375 87" stroke="none" stroke-width="0" fill="#ECECFF" style=""/><path d="M-166.80859375 -87 C-51.72695307993882 -87, 63.35468759012235 -87, 166.80859375 -87 M-166.80859375 -87 C-97.39474743820644 -87, -27.980901126412874 -87, 166.80859375 -87 M166.80859375 -87 C166.80859375 -38.27962603267666, 166.80859375 10.44074793464668, 166.80859375 87 M166.80859375 -87 C166.80859375 -44.84051163480779, 166.80859375 -2.6810232696155794, 166.80859375 87 M166.80859375 87 C90.68074922561331 87, 14.552904701226623 87, -166.80859375 87 M166.80859375 87 C78.79863755713565 87, -9.211318635728702 87, -166.80859375 87 M-166.80859375 87 C-166.80859375 46.05650208749081, -166.80859375 5.113004174981626, -166.80859375 -87 M-166.80859375 87 C-166.80859375 34.0582749874588, -166.80859375 -18.883450025082396, -166.80859375 -87" stroke="#9370DB" stroke-width="1.3" fill="none" stroke-dasharray="0 0" style=""/></g><g class="annotation-group text" transform="translate(0, -63)"/><g class="label-group text" transform="translate(-34.6640625, -63)"><g class="label" style="font-weight: bolder" transform="translate(0,-12)"><foreignObject width="69.328125" height="24"><div xmlns="http://www.w3.org/1999/xhtml" style="display: table-cell; white-space: nowrap; line-height: 1.5; max-width: 113px; text-align: center;"><span class="nodeLabel markdown-node-label" style=""><p>QAAgent</p></span></div></foreignObject></g></g><g class="members-group text" transform="translate(-154.80859375, -15)"/><g class="methods-group text" transform="translate(-154.80859375, 15)"><g class="label" style="" transform="translate(0,-12)"><foreignObject width="186" height="24"><div xmlns="http://www.w3.org/1999/xhtml" style="display: table-cell; white-space: nowrap; line-height: 1.5; max-width: 227px; text-align: center;"><span class="nodeLabel markdown-node-label" style=""><p>+runTests() : : TestResult[]</p></span></div></foreignObject></g><g class="label" style="" transform="translate(0,12)"><foreignObject width="231.640625" height="24"><div xmlns="http://www.w3.org/1999/xhtml" style="display: table-cell; white-space: nowrap; line-height: 1.5; max-width: 272px; text-align: center;"><span class="nodeLabel markdown-node-label" style=""><p>+checkQuality() : : QualityReport</p></span></div></foreignObject></g><g class="label" style="" transform="translate(0,36)"><foreignObject width="274.953125" height="24"><div xmlns="http://www.w3.org/1999/xhtml" style="display: table-cell; white-space: nowrap; line-height: 1.5; max-width: 311px; text-align: center;"><span class="nodeLabel markdown-node-label" style=""><p>+validateRequirements() : : Validation[]</p></span></div></foreignObject></g></g><g class="divider" style=""><path d="M-166.80859375 -39 C-82.36109540585502 -39, 2.0864029382899503 -39, 166.80859375 -39 M-166.80859375 -39 C-54.899294450071494 -39, 57.01000484985701 -39, 166.80859375 -39" stroke="#9370DB" stroke-width="1.3" fill="none" stroke-dasharray="0 0" style=""/></g><g class="divider" style=""><path d="M-166.80859375 -15 C-57.6826530674242 -15, 51.443287615151604 -15, 166.80859375 -15 M-166.80859375 -15 C-72.96329661817683 -15, 20.882000513646346 -15, 166.80859375 -15" stroke="#9370DB" stroke-width="1.3" fill="none" stroke-dasharray="0 0" style=""/></g></g></g></g></g></svg>